<svg width="65" height="81" fill="none" xmlns="http://www.w3.org/2000/svg"><path d="M32.5 81C14.55 81 0 62.867 0 40.5S14.55 0 32.5 0 65 18.133 65 40.5 50.45 81 32.5 81z" fill="#111"/><path d="M25.638 41.98c0 11.093-11.423 21.02-4.3 21.02C28.462 63 50 53.073 50 41.98S47.092 26 39.968 26c-7.123 0-14.33 4.887-14.33 15.98z" fill="#E8E8E8"/><path d="M15.235 45.341C15.235 56.104 5.748 66 12.316 66s26.702-9.896 26.702-20.659C39.018 34.58 42.613 26 36.045 26c-6.567 0-20.81 8.579-20.81 19.341z" fill="#fff" fill-opacity=".95"/><path d="M25 20.582C25 25.23 32.469 29 40 29s15-3.769 15-8.418c0-2.405-1.012-5.426-2.427-7.476-.616-.892.267-3.946-.3-4.1-.568-.152-4.04 2.389-4.958 3.032L40 13.216l-8.182-1.178c-1.192-.643-4.887-3.184-5.454-3.031-.568.153.441 3.207 0 4.099C25.35 15.156 25 18.176 25 20.582z" fill="#E8E8E8"/><path d="M34.5 26a5.5 5.5 0 110-11 5.5 5.5 0 010 11z" fill="#fff"/><path d="M45.5 26a5.5 5.5 0 110-11 5.5 5.5 0 010 11z" fill="#fff"/><path d="M40 28l1.5-4h-3l1.5 4z" fill="#fff"/><path d="M34.5 25a4.5 4.5 0 110-9 4.5 4.5 0 010 9zM45.5 25a4.5 4.5 0 110-9 4.5 4.5 0 010 9z" fill="#111"/><path d="M29.4 63.333L36 65m-6.6-5v3.333V60zm0 3.333L25 65l4.4-1.667zM31.6 63.333L40 65m-8.4-5v3.333V60zm0 3.333L26 65l5.6-1.667z" stroke="#DDD" stroke-width=".5"/><path d="M40 29c0 5.333-1 8.727-1 14.06 0 5.334-.4 6.207-4.6 11.54C30.799 59.173 26 61 26 61" stroke="#686868" stroke-width=".3"/><path d="M15 9l.898 2.418h2.906l-2.35 1.495.897 2.419L15 13.837l-2.351 1.495.898-2.419-2.351-1.495h2.906L15 9z" fill="#fff" fill-opacity=".85"/><path d="M37 21c0 1.657-.895 3-2 3s-2-1.343-2-3 .895-3 2-3 2 1.343 2 3zM48 21c0 1.657-.895 3-2 3s-2-1.343-2-3 .895-3 2-3 2 1.343 2 3z" fill="#fff"/></svg>